<svg xmlns="http://www.w3.org/2000/svg" version="1.1" xmlns:xlink="http://www.w3.org/1999/xlink" xmlns:svgjs="http://svgjs.com/svgjs" width="512" height="512" x="0" y="0" viewBox="0 0 512 512" style="enable-background:new 0 0 512 512" xml:space="preserve"><g><g xmlns="http://www.w3.org/2000/svg" clip-rule="evenodd" fill-rule="evenodd"><path d="m256 32c123.712 0 224 100.288 224 224s-100.288 224-224 224-224-100.288-224-224 100.288-224 224-224z" fill="#FBFBFB" data-original="#fbfbfb"></path><path d="m468.168 184h-424.3555c29.9849-88.3912 113.6525-152 212.1775-152s182.193 63.6088 212.178 152z" fill="#32AB45" data-original="#32ab45"></path><path d="m468.168 328c-29.985 88.391-113.653 152-212.178 152s-182.1926-63.609-212.1775-152z" fill="#1D1D1D" data-original="#1d1d1d"></path><path d="m152 57.5547v396.8903c-71.3408-37.465-120-112.273-120-198.445 0-86.173 48.6592-160.9804 120-198.4453z" fill="#E92B2B" data-original="#e92b2b"></path></g></g></svg>